<svg width="60" height="60" viewBox="0 0 60 60" fill="none" xmlns="http://www.w3.org/2000/svg">
<circle cx="30" cy="30" r="29.5" fill="#D9D9D9" stroke="white"/>
<path d="M29.9997 30C31.6179 30 33.1998 29.5201 34.5453 28.6211C35.8908 27.7221 36.9394 26.4443 37.5587 24.9492C38.178 23.4542 38.34 21.8091 38.0243 20.222C37.7086 18.6349 36.9294 17.177 35.7851 16.0328C34.6409 14.8885 33.183 14.1093 31.5959 13.7936C30.0088 13.4779 28.3637 13.6399 26.8686 14.2592C25.3736 14.8784 24.0958 15.9271 23.1968 17.2726C22.2977 18.6181 21.8179 20.2 21.8179 21.8182C21.82 23.9875 22.6827 26.0673 24.2167 27.6012C25.7506 29.1351 27.8304 29.9978 29.9997 30ZM29.9997 16.3636C31.0785 16.3636 32.1331 16.6835 33.0301 17.2829C33.9271 17.8822 34.6262 18.7341 35.039 19.7308C35.4519 20.7275 35.5599 21.8242 35.3494 22.8823C35.139 23.9404 34.6195 24.9123 33.8566 25.6751C33.0938 26.438 32.1219 26.9574 31.0638 27.1679C30.0057 27.3784 28.909 27.2704 27.9123 26.8575C26.9156 26.4447 26.0638 25.7456 25.4644 24.8486C24.865 23.9516 24.5451 22.897 24.5451 21.8182C24.5451 20.3715 25.1198 18.9842 26.1427 17.9612C27.1657 16.9383 28.5531 16.3636 29.9997 16.3636Z" fill="#374957"/>
<path d="M30.0003 32.7283C26.7464 32.7319 23.6269 34.0261 21.3261 36.3269C19.0253 38.6277 17.7311 41.7472 17.7275 45.001C17.7275 45.3627 17.8712 45.7095 18.1269 45.9652C18.3827 46.221 18.7295 46.3646 19.0912 46.3646C19.4528 46.3646 19.7997 46.221 20.0554 45.9652C20.3111 45.7095 20.4548 45.3627 20.4548 45.001C20.4548 42.4694 21.4605 40.0415 23.2506 38.2513C25.0407 36.4612 27.4687 35.4555 30.0003 35.4555C32.5319 35.4555 34.9598 36.4612 36.7499 38.2513C38.54 40.0415 39.5457 42.4694 39.5457 45.001C39.5457 45.3627 39.6894 45.7095 39.9451 45.9652C40.2009 46.221 40.5477 46.3646 40.9094 46.3646C41.271 46.3646 41.6179 46.221 41.8736 45.9652C42.1293 45.7095 42.273 45.3627 42.273 45.001C42.2694 41.7472 40.9752 38.6277 38.6744 36.3269C36.3736 34.0261 33.2541 32.7319 30.0003 32.7283Z" fill="#374957"/>
</svg>
