<svg width="25" height="21" viewBox="0 0 25 21" fill="none" xmlns="http://www.w3.org/2000/svg">
<path d="M24.3011 11.3796C24.3007 10.9059 24.1979 10.438 24.0001 10.0092C23.9802 9.90238 23.9571 9.79557 23.9288 9.68876L21.8309 4.38566L21.8162 4.3376C21.082 2.10848 20.033 0.0449219 17.3813 0.0449219H7.23495C4.5161 0.0449219 3.55633 2.15975 2.80424 4.32478L0.601473 9.6407C0.279509 10.1615 0.108276 10.7641 0.107424 11.3796V13.0298C0.107146 13.2815 0.136016 13.5325 0.193437 13.7774C0.137044 13.9256 0.107889 14.0831 0.107424 14.2421V19.1553C0.107424 19.5009 0.242249 19.8324 0.48224 20.0767C0.722231 20.3211 1.04773 20.4584 1.38712 20.4584H4.04303C4.38244 20.4584 4.70793 20.3211 4.94792 20.0767C5.18791 19.8324 5.32273 19.5009 5.32273 19.1553V16.6987H19.2379V19.1553C19.2379 19.5009 19.3727 19.8324 19.6127 20.0767C19.8527 20.3211 20.1782 20.4584 20.5176 20.4584H23.0214C23.3609 20.4584 23.6864 20.3211 23.9264 20.0767C24.1664 19.8324 24.3011 19.5009 24.3011 19.1553V14.2421C24.3007 14.0824 24.2716 13.9242 24.2151 13.7753C24.2724 13.5304 24.3012 13.2794 24.3011 13.0276V11.3796ZM4.36401 4.85349C5.20316 2.44921 5.87343 1.71542 7.23495 1.71542H17.3782C18.7292 1.71542 19.4813 2.53359 20.246 4.84281L21.7795 8.00758C21.2572 7.81199 20.7049 7.71253 20.1484 7.71385H4.26121C3.75879 7.7133 3.25951 7.79443 2.78221 7.95417L4.36401 4.85349ZM5.68147 13.6567H2.87871C2.63627 13.6567 2.40375 13.5587 2.23232 13.3841C2.06088 13.2095 1.96456 12.9727 1.96456 12.7259C1.96456 12.4791 2.06088 12.2423 2.23232 12.0677C2.40375 11.8931 2.63627 11.795 2.87871 11.795H5.68147C5.92392 11.795 6.15644 11.8931 6.32788 12.0677C6.49931 12.2423 6.59562 12.4791 6.59562 12.7259C6.59562 12.9727 6.49931 13.2095 6.32788 13.3841C6.15644 13.5587 5.92392 13.6567 5.68147 13.6567ZM15.5803 13.4698H9.06219C8.91768 13.4572 8.78306 13.3899 8.68496 13.2812C8.58686 13.1724 8.53243 13.0301 8.53243 12.8824C8.53243 12.7347 8.58686 12.5924 8.68496 12.4835C8.78306 12.3748 8.91768 12.3075 9.06219 12.2949H15.5803C15.6602 12.288 15.7407 12.298 15.8165 12.3244C15.8924 12.3508 15.9621 12.3929 16.0212 12.4481C16.0802 12.5033 16.1274 12.5705 16.1596 12.6453C16.1919 12.7199 16.2085 12.8008 16.2085 12.8824C16.2085 12.964 16.1919 13.0448 16.1596 13.1195C16.1274 13.1943 16.0802 13.2614 16.0212 13.3167C15.9621 13.3719 15.8924 13.414 15.8165 13.4403C15.7407 13.4667 15.6602 13.4768 15.5803 13.4698ZM21.4543 13.6567H18.6568C18.4144 13.6567 18.1819 13.5587 18.0105 13.3841C17.839 13.2095 17.7427 12.9727 17.7427 12.7259C17.7427 12.4791 17.839 12.2423 18.0105 12.0677C18.1819 11.8931 18.4144 11.795 18.6568 11.795H21.4585C21.7009 11.795 21.9335 11.8931 22.1049 12.0677C22.2764 12.2423 22.3727 12.4791 22.3727 12.7259C22.3727 12.9727 22.2764 13.2095 22.1049 13.3841C21.9335 13.5587 21.7009 13.6567 21.4585 13.6567H21.4543Z" fill="#8689CD"/>
</svg>
