<svg width="18" height="14" viewBox="0 0 18 14" fill="none" xmlns="http://www.w3.org/2000/svg">
<path fill-rule="evenodd" clip-rule="evenodd" d="M18.0005 7C18.0005 6.49574 17.6105 6.08696 17.1295 6.08696H0.871456C0.390433 6.08696 0.000488281 6.49574 0.000488281 7C0.000488281 7.50426 0.390433 7.91304 0.871456 7.91304H17.1295C17.6105 7.91304 18.0005 7.50426 18.0005 7Z" fill="white"/>
<path fill-rule="evenodd" clip-rule="evenodd" d="M18.0005 0.913043C18.0005 0.408783 17.6105 0 17.1295 0H0.871456C0.390433 0 0.000488281 0.408783 0.000488281 0.913043C0.000488281 1.4173 0.390433 1.82609 0.871456 1.82609H17.1295C17.6105 1.82609 18.0005 1.4173 18.0005 0.913043Z" fill="white"/>
<path fill-rule="evenodd" clip-rule="evenodd" d="M18.0005 13.087C18.0005 12.5827 17.6105 12.1739 17.1295 12.1739H0.871456C0.390433 12.1739 0.000488281 12.5827 0.000488281 13.087C0.000488281 13.5912 0.390433 14 0.871456 14H17.1295C17.6105 14 18.0005 13.5912 18.0005 13.087Z" fill="white"/>
</svg>
