<svg width="16" height="20" viewBox="0 0 16 20" fill="none" xmlns="http://www.w3.org/2000/svg">
<path d="M7.99935 9.99976C9.05418 9.99976 10.0853 9.70652 10.9624 9.15713C11.8395 8.60774 12.523 7.82686 12.9267 6.91325C13.3304 5.99965 13.436 4.99434 13.2302 4.02445C13.0244 3.05457 12.5165 2.16368 11.7706 1.46443C11.0247 0.765187 10.0744 0.288995 9.03983 0.0960735C8.00527 -0.0968479 6.93291 0.00216638 5.95837 0.380595C4.98383 0.759025 4.15088 1.39987 3.56484 2.2221C2.97881 3.04432 2.66602 4.011 2.66602 4.99988C2.66743 6.32553 3.22978 7.5965 4.22967 8.53387C5.22956 9.47124 6.58529 9.99844 7.99935 9.99976ZM7.99935 1.66663C8.70257 1.66663 9.39 1.86212 9.97471 2.22838C10.5594 2.59465 11.0151 3.11523 11.2843 3.7243C11.5534 4.33337 11.6238 5.00358 11.4866 5.65017C11.3494 6.29676 11.0108 6.89068 10.5135 7.35685C10.0163 7.82301 9.38271 8.14047 8.693 8.26909C8.00329 8.3977 7.28839 8.33169 6.6387 8.07941C5.989 7.82712 5.4337 7.39989 5.04301 6.85174C4.65232 6.30359 4.44379 5.65914 4.44379 4.99988C4.44379 4.11585 4.8184 3.26802 5.48519 2.64292C6.15199 2.01781 7.05636 1.66663 7.99935 1.66663V1.66663Z" fill="#818181"/>
<path d="M8 11.6669C5.87899 11.6691 3.84553 12.4599 2.34574 13.866C0.845963 15.272 0.00235276 17.1783 0 19.1667C0 19.3877 0.0936505 19.5997 0.260349 19.7559C0.427048 19.9122 0.653141 20 0.888889 20C1.12464 20 1.35073 19.9122 1.51743 19.7559C1.68413 19.5997 1.77778 19.3877 1.77778 19.1667C1.77778 17.6196 2.43333 16.1359 3.60022 15.042C4.76712 13.9481 6.34976 13.3335 8 13.3335C9.65024 13.3335 11.2329 13.9481 12.3998 15.042C13.5667 16.1359 14.2222 17.6196 14.2222 19.1667C14.2222 19.3877 14.3159 19.5997 14.4826 19.7559C14.6493 19.9122 14.8754 20 15.1111 20C15.3469 20 15.573 19.9122 15.7397 19.7559C15.9064 19.5997 16 19.3877 16 19.1667C15.9976 17.1783 15.154 15.272 13.6543 13.866C12.1545 12.4599 10.121 11.6691 8 11.6669V11.6669Z" fill="#818181"/>
</svg>
