<svg width="20" height="20" viewBox="0 0 20 20" fill="none" xmlns="http://www.w3.org/2000/svg">
<path fill-rule="evenodd" clip-rule="evenodd" d="M12.6021 13.8213C9.55574 16.2612 5.09649 16.0692 2.27252 13.2452C-0.757505 10.2152 -0.757505 5.30254 2.27252 2.27252C5.30254 -0.757506 10.2152 -0.757505 13.2452 2.27252C16.0692 5.09649 16.2612 9.55574 13.8213 12.6021L19.7475 18.5283C20.0842 18.865 20.0842 19.4108 19.7475 19.7475C19.4108 20.0842 18.865 20.0842 18.5283 19.7475L12.6021 13.8213ZM3.4917 12.026C1.13502 9.66933 1.13502 5.84839 3.4917 3.4917C5.84838 1.13502 9.66932 1.13502 12.026 3.4917C14.381 5.84666 14.3827 9.66372 12.0312 12.0208C12.0295 12.0225 12.0277 12.0243 12.026 12.026C12.0243 12.0277 12.0225 12.0294 12.0208 12.0312C9.66372 14.3827 5.84666 14.381 3.4917 12.026Z" fill="#363BAB" fill-opacity="0.7"/>
</svg>
