<svg width="22" height="27" viewBox="0 0 22 27" fill="none" xmlns="http://www.w3.org/2000/svg">
<path d="M21.1674 24.5791L17.3784 17.718C17.8988 17.6288 18.3709 17.3601 18.7123 16.9595C19.0536 16.5587 19.2422 16.0513 19.2451 15.5261V5.40806C19.2451 4.1098 18.7269 2.86461 17.8044 1.94601C16.8819 1.0274 15.6305 0.510482 14.3251 0.508789H7.87897C6.55957 0.51048 5.29471 1.03247 4.36175 1.96028C3.42881 2.8881 2.90393 4.146 2.90223 5.45812V15.5261C2.89502 16.054 3.07984 16.5666 3.42268 16.9696C3.76551 17.3725 4.24323 17.6388 4.76784 17.7191L1.03662 24.5791C0.964346 24.708 0.91868 24.8499 0.902309 24.9965C0.885939 25.1432 0.899192 25.2915 0.941292 25.4331C0.983392 25.5745 1.05349 25.7063 1.14747 25.8204C1.24145 25.9346 1.35742 26.0289 1.48856 26.0979C1.64182 26.1882 1.81996 26.2277 1.99728 26.2108C2.19391 26.2119 2.38719 26.1601 2.55681 26.0611C2.72641 25.9622 2.86608 25.8196 2.96113 25.6484L3.30062 25.0861H18.9056L19.2451 25.6484C19.3361 25.8229 19.4749 25.9683 19.6455 26.0678C19.816 26.1673 20.0113 26.2169 20.2089 26.2108C20.3834 26.2001 20.555 26.1621 20.7176 26.0979C20.8486 26.0288 20.9643 25.9343 21.0581 25.82C21.1518 25.7057 21.2217 25.574 21.2636 25.4326C21.3055 25.2911 21.3185 25.1427 21.302 24.9962C21.2855 24.8496 21.2397 24.7079 21.1674 24.5791ZM15.8523 19.518H6.35177L7.31564 17.7745H14.8905L15.8523 19.518ZM15.6831 15.7498C15.3588 15.7498 15.0418 15.6541 14.7721 15.475C14.5024 15.2959 14.2923 15.0411 14.1682 14.7432C14.0441 14.4452 14.0116 14.1174 14.0749 13.801C14.1382 13.4847 14.2943 13.1942 14.5236 12.9661C14.7529 12.7381 15.0451 12.5828 15.3632 12.5199C15.6812 12.4569 16.0109 12.4893 16.3105 12.6126C16.6101 12.7361 16.8661 12.9452 17.0463 13.2132C17.2265 13.4814 17.3227 13.7967 17.3227 14.1192C17.3126 14.5484 17.1366 14.9573 16.8312 15.2607C16.5258 15.5641 16.1147 15.7389 15.6831 15.7487V15.7498ZM4.88242 6.07585C4.87783 5.24966 5.20163 4.45513 5.78333 3.86527C6.36503 3.27541 7.15751 2.93798 7.98819 2.92647H14.1516C14.989 2.93452 15.7897 3.26891 16.3819 3.8578C16.974 4.44669 17.3103 5.24308 17.3184 6.07585V8.77578C17.3164 8.92014 17.2852 9.06264 17.2269 9.19487C17.1687 9.32708 17.0843 9.44635 16.9789 9.54562C16.8734 9.6449 16.7491 9.72217 16.6132 9.77286C16.4773 9.82357 16.3325 9.84668 16.1875 9.84083H6.01335C5.72932 9.84083 5.45692 9.72862 5.25608 9.52889C5.05524 9.32915 4.94239 9.05825 4.94239 8.77578L4.88564 6.07692L4.88242 6.07585ZM6.52206 12.4311C6.84635 12.4311 7.16336 12.5267 7.433 12.7058C7.70263 12.885 7.91279 13.1397 8.03689 13.4376C8.16099 13.7356 8.19345 14.0635 8.13019 14.3798C8.06692 14.6961 7.91076 14.9867 7.68146 15.2147C7.45215 15.4427 7.16 15.598 6.84194 15.661C6.52389 15.7239 6.1942 15.6915 5.8946 15.5682C5.59499 15.4447 5.33893 15.2357 5.15876 14.9676C4.97859 14.6994 4.88242 14.3842 4.88242 14.0617C4.88271 13.6292 5.05555 13.2147 5.36298 12.9089C5.67041 12.6033 6.08729 12.4314 6.52206 12.4311ZM4.20344 23.4012L5.44467 21.2039H16.754L17.9985 23.3969L4.20344 23.4012Z" fill="#8689CD"/>
</svg>
