<svg width="18" height="22" viewBox="0 0 18 22" fill="none" xmlns="http://www.w3.org/2000/svg">
<path d="M9 0C4.02751 0 0 0.579406 0 4.63198V16.2103C0.000994709 16.6961 0.101714 17.1762 0.295566 17.6192C0.489418 18.0621 0.772021 18.4579 1.12487 18.7806V20.8412C1.12543 21.1482 1.24408 21.4424 1.45489 21.6595C1.66568 21.8767 1.95147 21.9991 2.24974 22H3.37566C3.67399 22 3.96011 21.878 4.17106 21.661C4.38202 21.4438 4.50053 21.1493 4.50053 20.8423V19.6846H13.5005V20.8423C13.5005 21.1493 13.619 21.4438 13.8299 21.661C14.041 21.878 14.3271 22 14.6254 22H15.7503C16.0484 21.9991 16.334 21.8769 16.5448 21.66C16.7556 21.443 16.8743 21.1491 16.8751 20.8423V18.7817C17.2279 18.459 17.5106 18.0632 17.7044 17.6203C17.8983 17.1773 17.999 16.6972 18 16.2114V4.63198C18.0011 0.579406 13.9683 0 9 0ZM3.93757 17.3691C3.60375 17.3691 3.27742 17.2673 2.99986 17.0764C2.7223 16.8854 2.50597 16.6141 2.37821 16.2968C2.25047 15.9793 2.21704 15.63 2.28217 15.293C2.34729 14.9561 2.50804 14.6466 2.7441 14.4037C2.98014 14.1607 3.28088 13.9953 3.60829 13.9282C3.93569 13.8612 4.27506 13.8956 4.58347 14.0271C4.89188 14.1585 5.15548 14.3812 5.34095 14.6669C5.52641 14.9526 5.6254 15.2884 5.6254 15.632C5.62568 15.8601 5.58221 16.0862 5.49749 16.2971C5.41276 16.5079 5.28844 16.6996 5.13166 16.8609C4.97488 17.0223 4.7887 17.1503 4.5838 17.2374C4.3789 17.3247 4.15929 17.3694 3.93757 17.3691ZM14.0635 17.3691C13.7296 17.3691 13.4034 17.2673 13.1258 17.0764C12.8483 16.8854 12.6319 16.6141 12.5041 16.2968C12.3764 15.9793 12.343 15.63 12.408 15.293C12.4732 14.9561 12.634 14.6466 12.8701 14.4037C13.106 14.1607 13.4068 13.9953 13.7342 13.9282C14.0616 13.8612 14.401 13.8956 14.7094 14.0271C15.0178 14.1585 15.2814 14.3812 15.4669 14.6669C15.6524 14.9526 15.7513 15.2884 15.7513 15.632C15.7516 15.8601 15.7081 16.0862 15.6234 16.2971C15.5387 16.5079 15.4144 16.6996 15.2576 16.8609C15.1008 17.0223 14.9146 17.1503 14.7097 17.2374C14.5049 17.3247 14.2852 17.3694 14.0635 17.3691ZM15.7513 10.4217H2.24974V4.63198H15.7503L15.7513 10.4217Z" fill="white"/>
</svg>
