<svg width="20" height="25" viewBox="0 0 20 25" fill="none" xmlns="http://www.w3.org/2000/svg">
<path d="M19.8613 23.4094L16.149 16.7367C16.6589 16.6499 17.1215 16.3887 17.4559 15.999C17.7903 15.6092 17.9751 15.1157 17.9779 14.605V4.76475C17.9779 3.50213 17.4703 2.29114 16.5664 1.39776C15.6626 0.504372 14.4365 0.00164688 13.1576 0H6.84202C5.54934 0.00164446 4.3101 0.509301 3.39604 1.41164C2.48199 2.31398 1.96774 3.53734 1.96608 4.81343V14.605C1.95901 15.1183 2.14009 15.6169 2.47598 16.0088C2.81187 16.4007 3.27992 16.6596 3.7939 16.7377L0.138259 23.4094C0.0674437 23.5347 0.0227026 23.6727 0.00666368 23.8153C-0.00937524 23.958 0.00360936 24.1023 0.0448568 24.2399C0.0861042 24.3775 0.154784 24.5056 0.246862 24.6166C0.338938 24.7277 0.452553 24.8194 0.581045 24.8865C0.7312 24.9743 0.905727 25.0127 1.07945 24.9963C1.27211 24.9973 1.46147 24.947 1.62765 24.8507C1.79382 24.7545 1.93066 24.6158 2.02378 24.4494L2.3564 23.9025H17.6453L17.9779 24.4494C18.0671 24.619 18.2031 24.7604 18.3702 24.8572C18.5373 24.954 18.7286 25.0022 18.9222 24.9963C19.0932 24.9859 19.2614 24.9489 19.4206 24.8865C19.549 24.8193 19.6623 24.7274 19.7542 24.6162C19.846 24.5051 19.9145 24.377 19.9556 24.2394C19.9966 24.1019 20.0094 23.9576 19.9932 23.815C19.9771 23.6725 19.9322 23.5346 19.8613 23.4094ZM14.6538 18.4872H5.34575L6.2901 16.7916H13.7116L14.6538 18.4872ZM14.488 14.8225C14.1703 14.8225 13.8597 14.7295 13.5955 14.5553C13.3313 14.381 13.1255 14.1333 13.0039 13.8436C12.8822 13.5537 12.8505 13.2349 12.9125 12.9273C12.9745 12.6196 13.1275 12.3371 13.3521 12.1153C13.5768 11.8935 13.863 11.7425 14.1746 11.6813C14.4863 11.6201 14.8092 11.6516 15.1028 11.7715C15.3963 11.8916 15.6472 12.0949 15.8237 12.3556C16.0002 12.6164 16.0945 12.923 16.0945 13.2367C16.0846 13.6541 15.9121 14.0518 15.613 14.3469C15.3137 14.642 14.9109 14.8119 14.488 14.8215V14.8225ZM3.90616 5.4142C3.90166 4.6107 4.21891 3.83798 4.78882 3.26432C5.35874 2.69065 6.13517 2.36249 6.94903 2.3513H12.9876C13.808 2.35913 14.5925 2.68433 15.1727 3.25706C15.7528 3.82978 16.0823 4.6043 16.0903 5.4142V8.03999C16.0883 8.1804 16.0577 8.31898 16.0007 8.44757C15.9436 8.57616 15.8609 8.69215 15.7577 8.7887C15.6543 8.88525 15.5325 8.9604 15.3993 9.0097C15.2662 9.05902 15.1243 9.08149 14.9822 9.07581H5.01419C4.73591 9.07581 4.46903 8.96667 4.27225 8.77243C4.07548 8.57817 3.96492 8.31471 3.96492 8.03999L3.90932 5.41524L3.90616 5.4142ZM5.5126 11.5949C5.83031 11.5949 6.14091 11.6879 6.40508 11.8621C6.66925 12.0364 6.87515 12.2841 6.99674 12.5739C7.11833 12.8637 7.15013 13.1825 7.08815 13.4901C7.02616 13.7978 6.87317 14.0803 6.64851 14.3021C6.42384 14.5239 6.13761 14.6749 5.82599 14.7361C5.51438 14.7973 5.19138 14.7658 4.89784 14.6459C4.6043 14.5258 4.35342 14.3225 4.1769 14.0618C4.00039 13.801 3.90616 13.4944 3.90616 13.1807C3.90645 12.7602 4.07579 12.3571 4.37699 12.0597C4.67819 11.7624 5.08663 11.5952 5.5126 11.5949ZM3.24094 22.2638L4.45703 20.1269H15.5373L16.7566 22.2597L3.24094 22.2638Z" fill="white"/>
</svg>
