<svg width="16" height="20" viewBox="0 0 16 20" fill="none" xmlns="http://www.w3.org/2000/svg">
<path d="M6.39607 14.1966C6.39607 13.3396 7.11416 12.6448 7.99997 12.6448C8.88578 12.6448 9.60387 13.3396 9.60387 14.1966C9.60387 15.0536 8.88578 15.7484 7.99997 15.7484C7.11416 15.7484 6.39607 15.0536 6.39607 14.1966Z" fill="#74768D"/>
<path fill-rule="evenodd" clip-rule="evenodd" d="M3.31836 8.60719L2.98107 5.67018C2.93782 5.29364 2.93782 4.91362 2.98107 4.53707L3.00541 4.3251C3.26363 2.07666 5.09057 0.297628 7.41279 0.0333019C7.80288 -0.0111006 8.19701 -0.0111006 8.58711 0.0333019C10.9093 0.297628 12.7363 2.07667 12.9945 4.3251L13.0188 4.53707C13.0621 4.91362 13.0621 5.29364 13.0188 5.67018L12.6815 8.60718L13.4157 8.66388C14.5734 8.7533 15.5188 9.59531 15.7064 10.7042C16.0979 13.0171 16.0979 15.3761 15.7064 17.689C15.5188 18.7979 14.5734 19.6399 13.4157 19.7293L11.8159 19.8529C9.27602 20.049 6.72398 20.049 4.18407 19.8529L2.58431 19.7293C1.42659 19.6399 0.481243 18.7979 0.293571 17.689C-0.0978569 15.3761 -0.0978569 13.0171 0.293571 10.7042C0.481243 9.59531 1.42659 8.7533 2.58431 8.66388L3.31836 8.60719ZM7.60019 1.57447C7.86578 1.54424 8.13411 1.54424 8.3997 1.57447C9.98075 1.75443 11.2246 2.96566 11.4004 4.49647L11.4247 4.70844C11.4549 4.97109 11.4549 5.23617 11.4247 5.49882L11.0813 8.48907C9.0292 8.36122 6.97069 8.36122 4.91856 8.48908L4.57516 5.49882C4.54499 5.23617 4.54499 4.97109 4.57516 4.70844L4.5995 4.49647C4.7753 2.96566 6.01915 1.75443 7.60019 1.57447ZM11.6883 10.0872C9.23334 9.89758 6.76666 9.89758 4.3117 10.0872L2.71194 10.2108C2.28966 10.2434 1.94484 10.5505 1.87639 10.955C1.51307 13.1018 1.51307 15.2914 1.87639 17.4382C1.94484 17.8427 2.28966 18.1498 2.71194 18.1824L4.3117 18.306C6.76666 18.4956 9.23334 18.4956 11.6883 18.306L13.2881 18.1824C13.7103 18.1498 14.0552 17.8427 14.1236 17.4382C14.4869 15.2914 14.4869 13.1018 14.1236 10.955C14.0552 10.5505 13.7103 10.2434 13.2881 10.2108L11.6883 10.0872Z" fill="#74768D"/>
</svg>
