<svg width="160" height="31" viewBox="0 0 160 31" fill="none" xmlns="http://www.w3.org/2000/svg">
<path d="M29.01 1.58L23.55 23H18.39L15.48 11.75C15.42 11.53 15.34 11.2 15.24 10.76C15.16 10.32 15.06 9.84 14.94 9.32C14.84 8.8 14.75 8.31 14.67 7.85C14.59 7.37 14.53 7 14.49 6.74C14.47 7 14.41 7.37 14.31 7.85C14.23 8.31 14.14 8.8 14.04 9.32C13.94 9.82 13.84 10.3 13.74 10.76C13.64 11.2 13.56 11.54 13.5 11.78L10.62 23H5.46L0 1.58H4.47L7.2 13.28C7.28 13.62 7.37 14.04 7.47 14.54C7.57 15.02 7.67 15.53 7.77 16.07C7.87 16.59 7.96 17.1 8.04 17.6C8.14 18.1 8.21 18.53 8.25 18.89C8.29 18.51 8.35 18.08 8.43 17.6C8.51 17.1 8.6 16.6 8.7 16.1C8.8 15.58 8.89 15.1 8.97 14.66C9.07 14.2 9.16 13.84 9.24 13.58L12.36 1.58H16.65L19.77 13.58C19.83 13.84 19.91 14.2 20.01 14.66C20.11 15.1 20.21 15.58 20.31 16.1C20.41 16.62 20.5 17.13 20.58 17.63C20.66 18.11 20.72 18.53 20.76 18.89C20.82 18.39 20.91 17.8 21.03 17.12C21.15 16.42 21.28 15.72 21.42 15.02C21.58 14.32 21.71 13.74 21.81 13.28L24.54 1.58H29.01ZM123.956 23H111.626V1.58H123.956V5.3H116.156V10.01H123.416V13.73H116.156V19.25H123.956V23Z" fill="#FF3D3D"/>
<path d="M35.8139 6.62V23H31.3439V6.62H35.8139ZM33.5939 0.199998C34.2539 0.199998 34.8239 0.359999 35.3039 0.679999C35.7839 0.979999 36.0239 1.55 36.0239 2.39C36.0239 3.21 35.7839 3.78 35.3039 4.1C34.8239 4.42 34.2539 4.58 33.5939 4.58C32.9139 4.58 32.3339 4.42 31.8539 4.1C31.3939 3.78 31.1639 3.21 31.1639 2.39C31.1639 1.55 31.3939 0.979999 31.8539 0.679999C32.3339 0.359999 32.9139 0.199998 33.5939 0.199998ZM49.7845 6.32C51.5445 6.32 52.9545 6.8 54.0145 7.76C55.0745 8.7 55.6045 10.22 55.6045 12.32V23H51.1345V13.43C51.1345 12.25 50.9245 11.37 50.5045 10.79C50.0845 10.19 49.4145 9.89 48.4945 9.89C47.1345 9.89 46.2045 10.36 45.7045 11.3C45.2045 12.22 44.9545 13.55 44.9545 15.29V23H40.4845V6.62H43.9045L44.5045 8.72H44.7445C45.1045 8.16 45.5445 7.71 46.0645 7.37C46.5845 7.01 47.1645 6.75 47.8045 6.59C48.4445 6.41 49.1045 6.32 49.7845 6.32ZM69.5013 6.32C71.2613 6.32 72.6713 6.8 73.7313 7.76C74.7913 8.7 75.3213 10.22 75.3213 12.32V23H70.8513V13.43C70.8513 12.25 70.6413 11.37 70.2213 10.79C69.8013 10.19 69.1313 9.89 68.2113 9.89C66.8513 9.89 65.9213 10.36 65.4213 11.3C64.9213 12.22 64.6713 13.55 64.6713 15.29V23H60.2013V6.62H63.6213L64.2213 8.72H64.4613C64.8213 8.16 65.2613 7.71 65.7813 7.37C66.3013 7.01 66.8813 6.75 67.5213 6.59C68.1613 6.41 68.8213 6.32 69.5013 6.32ZM86.6681 6.32C88.1881 6.32 89.4881 6.61 90.5681 7.19C91.6681 7.77 92.5181 8.61 93.1181 9.71C93.7181 10.81 94.0181 12.16 94.0181 13.76V15.92H83.4581C83.4981 17.18 83.8681 18.17 84.5681 18.89C85.2881 19.61 86.2781 19.97 87.5381 19.97C88.5981 19.97 89.5581 19.87 90.4181 19.67C91.2781 19.45 92.1681 19.12 93.0881 18.68V22.13C92.2881 22.53 91.4381 22.82 90.5381 23C89.6581 23.2 88.5881 23.3 87.3281 23.3C85.6881 23.3 84.2381 23 82.9781 22.4C81.7181 21.78 80.7281 20.85 80.0081 19.61C79.2881 18.37 78.9281 16.81 78.9281 14.93C78.9281 13.01 79.2481 11.42 79.8881 10.16C80.5481 8.88 81.4581 7.92 82.6181 7.28C83.7781 6.64 85.1281 6.32 86.6681 6.32ZM86.6981 9.5C85.8381 9.5 85.1181 9.78 84.5381 10.34C83.9781 10.9 83.6481 11.77 83.5481 12.95H89.8181C89.8181 12.29 89.6981 11.7 89.4581 11.18C89.2381 10.66 88.8981 10.25 88.4381 9.95C87.9781 9.65 87.3981 9.5 86.6981 9.5ZM106.793 6.32C107.013 6.32 107.273 6.33 107.573 6.35C107.873 6.37 108.113 6.4 108.293 6.44L107.963 10.64C107.823 10.6 107.613 10.57 107.333 10.55C107.073 10.51 106.843 10.49 106.643 10.49C106.063 10.49 105.503 10.57 104.963 10.73C104.423 10.87 103.933 11.1 103.493 11.42C103.073 11.74 102.733 12.17 102.473 12.71C102.233 13.23 102.113 13.88 102.113 14.66V23H97.6427V6.62H101.033L101.693 9.38H101.903C102.223 8.82 102.623 8.31 103.103 7.85C103.583 7.39 104.133 7.02 104.753 6.74C105.393 6.46 106.073 6.32 106.793 6.32ZM125.713 6.62H130.603L133.693 15.83C133.793 16.13 133.873 16.43 133.933 16.73C134.013 17.03 134.073 17.34 134.113 17.66C134.173 17.98 134.213 18.32 134.233 18.68H134.323C134.383 18.16 134.463 17.67 134.563 17.21C134.683 16.73 134.813 16.27 134.953 15.83L137.983 6.62H142.783L135.853 25.1C135.433 26.22 134.883 27.16 134.203 27.92C133.543 28.68 132.773 29.25 131.893 29.63C131.013 30.01 130.053 30.2 129.013 30.2C128.513 30.2 128.073 30.17 127.693 30.11C127.333 30.07 127.013 30.02 126.733 29.96V26.42C126.953 26.46 127.213 26.5 127.513 26.54C127.833 26.58 128.163 26.6 128.503 26.6C129.123 26.6 129.653 26.47 130.093 26.21C130.553 25.95 130.933 25.59 131.233 25.13C131.533 24.69 131.773 24.21 131.953 23.69L132.223 22.88L125.713 6.62ZM151.883 6.32C153.403 6.32 154.703 6.61 155.783 7.19C156.883 7.77 157.733 8.61 158.333 9.71C158.933 10.81 159.233 12.16 159.233 13.76V15.92H148.673C148.713 17.18 149.083 18.17 149.783 18.89C150.503 19.61 151.493 19.97 152.753 19.97C153.813 19.97 154.773 19.87 155.633 19.67C156.493 19.45 157.383 19.12 158.303 18.68V22.13C157.503 22.53 156.653 22.82 155.753 23C154.873 23.2 153.803 23.3 152.543 23.3C150.903 23.3 149.453 23 148.193 22.4C146.933 21.78 145.943 20.85 145.223 19.61C144.503 18.37 144.143 16.81 144.143 14.93C144.143 13.01 144.463 11.42 145.103 10.16C145.763 8.88 146.673 7.92 147.833 7.28C148.993 6.64 150.343 6.32 151.883 6.32ZM151.913 9.5C151.053 9.5 150.333 9.78 149.753 10.34C149.193 10.9 148.863 11.77 148.763 12.95H155.033C155.033 12.29 154.913 11.7 154.673 11.18C154.453 10.66 154.113 10.25 153.653 9.95C153.193 9.65 152.613 9.5 151.913 9.5Z" fill="white"/>
</svg>
