<svg width="21" height="25" viewBox="0 0 21 25" fill="none" xmlns="http://www.w3.org/2000/svg">
<path d="M10.7086 0.0205078C5.27824 0.0205078 0.879883 0.657689 0.879883 5.11436V17.8472C0.880969 18.3815 0.990963 18.9095 1.20266 19.3966C1.41437 19.8837 1.72299 20.3189 2.10833 20.6738V22.9399C2.10894 23.2775 2.23852 23.601 2.46873 23.8398C2.69894 24.0786 3.01104 24.2133 3.33677 24.2142H4.56637C4.89216 24.2142 5.20463 24.0801 5.435 23.8414C5.66539 23.6026 5.79481 23.2787 5.79481 22.9411V21.6679H15.6235V22.9411C15.6235 23.2787 15.7529 23.6026 15.9833 23.8414C16.2137 24.0801 16.5262 24.2142 16.852 24.2142H18.0804C18.4059 24.2133 18.7178 24.0789 18.948 23.8403C19.1783 23.6017 19.3079 23.2785 19.3088 22.9411V20.675C19.6941 20.3201 20.0028 19.8849 20.2145 19.3978C20.4262 18.9107 20.5362 18.3827 20.5373 17.8484V5.11436C20.5384 0.657689 16.1343 0.0205078 10.7086 0.0205078ZM5.18001 19.1216C4.81545 19.1216 4.45908 19.0096 4.15597 18.7996C3.85284 18.5897 3.61659 18.2913 3.47707 17.9423C3.33757 17.5932 3.30106 17.2091 3.37219 16.8385C3.44331 16.4679 3.61886 16.1275 3.87665 15.8604C4.13442 15.5932 4.46286 15.4113 4.82041 15.3375C5.17797 15.2639 5.54858 15.3017 5.88539 15.4463C6.2222 15.5908 6.51007 15.8358 6.71262 16.1499C6.91515 16.4641 7.02325 16.8333 7.02325 17.2112C7.02356 17.4621 6.97609 17.7108 6.88357 17.9427C6.79104 18.1745 6.65527 18.3853 6.48406 18.5627C6.31284 18.7402 6.10951 18.881 5.88575 18.9768C5.66198 19.0727 5.42215 19.1219 5.18001 19.1216ZM16.2383 19.1216C15.8737 19.1216 15.5174 19.0096 15.2143 18.7996C14.9112 18.5897 14.6748 18.2913 14.5354 17.9423C14.3959 17.5932 14.3594 17.2091 14.4304 16.8385C14.5016 16.4679 14.6772 16.1275 14.935 15.8604C15.1927 15.5932 15.5211 15.4113 15.8787 15.3375C16.2362 15.2639 16.6068 15.3017 16.9437 15.4463C17.2805 15.5908 17.5683 15.8358 17.7709 16.1499C17.9735 16.4641 18.0816 16.8333 18.0816 17.2112C18.0819 17.4621 18.0344 17.7108 17.9418 17.9427C17.8494 18.1745 17.7136 18.3853 17.5423 18.5627C17.3712 18.7402 17.1678 18.881 16.9441 18.9768C16.7203 19.0727 16.4804 19.1219 16.2383 19.1216ZM18.0816 11.4814H3.33677V5.11436H18.0804L18.0816 11.4814Z" fill="#8689CD"/>
</svg>
