<svg width="24" height="20" viewBox="0 0 24 20" fill="none" xmlns="http://www.w3.org/2000/svg">
<path d="M24 11.1051C23.9996 10.641 23.8976 10.1825 23.7014 9.76245C23.6816 9.65781 23.6587 9.55316 23.6306 9.44851L21.5495 4.25283L21.535 4.20573C20.8066 2.02177 19.7661 0 17.1356 0H7.07045C4.37338 0 3.42129 2.072 2.67522 4.19318L0.490095 9.40142C0.17071 9.91167 0.000846895 10.5021 1.97484e-06 11.1051V12.7219C-0.000273949 12.9685 0.028365 13.2144 0.0853261 13.4544C0.0293853 13.5995 0.000463186 13.7539 1.97484e-06 13.9096V18.7233C1.97484e-06 19.062 0.133748 19.3867 0.371817 19.6261C0.609886 19.8655 0.932777 20 1.26946 20H3.9041C4.24078 20 4.56367 19.8655 4.80174 19.6261C5.03981 19.3867 5.17355 19.062 5.17355 18.7233V16.3165H18.9773V18.7233C18.9773 19.062 19.111 19.3867 19.3491 19.6261C19.5872 19.8655 19.9101 20 20.2468 20H22.7305C23.0673 20 23.3901 19.8655 23.6282 19.6261C23.8663 19.3867 24 19.062 24 18.7233V13.9096C23.9996 13.7531 23.9707 13.5982 23.9147 13.4523C23.9715 13.2123 24.0001 12.9664 24 12.7198V11.1051ZM4.2225 4.71118C5.05493 2.35559 5.71984 1.63667 7.07045 1.63667H17.1325C18.4727 1.63667 19.2187 2.43826 19.9773 4.70071L21.4985 7.80138C20.9805 7.60975 20.4325 7.51231 19.8805 7.5136H4.12053C3.62213 7.51306 3.12685 7.59255 2.65337 7.74906L4.2225 4.71118ZM5.52942 13.3361H2.7491C2.5086 13.3361 2.27794 13.2401 2.10788 13.069C1.93781 12.898 1.84227 12.666 1.84227 12.4241C1.84227 12.1823 1.93781 11.9503 2.10788 11.7793C2.27794 11.6082 2.5086 11.5121 2.7491 11.5121H5.52942C5.76993 11.5121 6.00058 11.6082 6.17065 11.7793C6.3407 11.9503 6.43625 12.1823 6.43625 12.4241C6.43625 12.666 6.3407 12.898 6.17065 13.069C6.00058 13.2401 5.76993 13.3361 5.52942 13.3361ZM15.349 13.153H8.88307C8.73971 13.1406 8.60617 13.0747 8.50886 12.9682C8.41154 12.8616 8.35755 12.7222 8.35755 12.5774C8.35755 12.4327 8.41154 12.2933 8.50886 12.1867C8.60617 12.0802 8.73971 12.0142 8.88307 12.0019H15.349C15.4283 11.9951 15.5081 12.0049 15.5833 12.0308C15.6586 12.0566 15.7277 12.0978 15.7863 12.1519C15.8449 12.206 15.8917 12.2719 15.9237 12.3451C15.9557 12.4183 15.9721 12.4975 15.9721 12.5774C15.9721 12.6574 15.9557 12.7366 15.9237 12.8098C15.8917 12.883 15.8449 12.9488 15.7863 13.0029C15.7277 13.057 15.6586 13.0983 15.5833 13.1241C15.5081 13.15 15.4283 13.1598 15.349 13.153ZM21.176 13.3361H18.4009C18.1604 13.3361 17.9297 13.2401 17.7597 13.069C17.5896 12.898 17.494 12.666 17.494 12.4241C17.494 12.1823 17.5896 11.9503 17.7597 11.7793C17.9297 11.6082 18.1604 11.5121 18.4009 11.5121H21.1801C21.4206 11.5121 21.6513 11.6082 21.8213 11.7793C21.9915 11.9503 22.087 12.1823 22.087 12.4241C22.087 12.666 21.9915 12.898 21.8213 13.069C21.6513 13.2401 21.4206 13.3361 21.1801 13.3361H21.176Z" fill="white"/>
</svg>
